<svg width="35" height="14" fill="none" xmlns="http://www.w3.org/2000/svg"><path d="M11.474 13V.238H8.63v7.758L3.842.238H.386V13h2.826V4.612L8.468 13h3.006zM19.818 13h2.628a14.03 14.03 0 01-.09-1.602V4.054H19.62v5.094c0 .9-.576 1.53-1.494 1.53-.972 0-1.44-.684-1.44-1.548V4.054H13.95v5.652c0 1.908 1.224 3.492 3.402 3.492.9 0 1.926-.324 2.394-1.098 0 .234.036.738.072.9zM30.45 4.054c-.18-.054-.45-.09-.72-.09-.72 0-1.853.288-2.321 1.296V4.054h-2.646V13h2.736V9.094c0-1.782.99-2.43 2.088-2.43.27 0 .558.018.864.09v-2.7zM30.614 11.308c0 .99.828 1.854 1.836 1.854s1.854-.864 1.854-1.854c0-1.008-.846-1.836-1.854-1.836a1.844 1.844 0 00-1.836 1.836z" fill="#000"/></svg>